<?xml version="1.0" encoding="utf-8"?>
<!-- Generator: Adobe Illustrator 22.0.1, SVG Export Plug-In . SVG Version: 6.00 Build 0)  -->
<svg version="1.1" id="Calque_1" xmlns="http://www.w3.org/2000/svg" xmlns:xlink="http://www.w3.org/1999/xlink" x="0px" y="0px"
	 viewBox="0 0 841.89 404.79" enable-background="new 0 0 841.89 404.79" xml:space="preserve">
<g>
	<rect x="772.557" y="222.752" fill="#F8573B" width="25.721" height="157.466"/>
	<rect x="772.557" y="208.993" fill="#F8573B" width="25.721" height="10.389"/>
	<path fill="#F8573B" d="M814.395,21.522h-27.892h-3.15h-27.889v75.453l23.743,22.342v86.594h11.442v-86.594l23.746-22.342V21.522z
		 M780.911,30.02h8.033v50.268h-8.033V30.02z M772.557,80.288h-8.038V30.02h8.038V80.288z M806.313,80.288h-8.034V30.02h8.034
		V80.288z"/>
</g>
<rect x="237.929" y="21.522" fill="none" width="445.155" height="174.502"/>
<text transform="matrix(1 0 0 1 237.9288 182.0639)" fill="#F8573B" font-family="'SignPainter-HouseScript'" font-size="256.4102px">Trad</text>
<rect x="27.495" y="134.637" fill="none" width="757.364" height="286.129"/>
<text transform="matrix(1 0 0 1 27.4942 376.3403)"><tspan x="0" y="0" fill="#F8573B" font-family="'BodoniSvtyTwoITCTT-Book'" font-size="341.8803px">F</tspan><tspan x="185.641" y="0" fill="#F8573B" font-family="'BodoniSvtyTwoOSITCTT-Book'" font-size="341.8803px">ood</tspan></text>
</svg>
