<?xml version="1.0" encoding="UTF-8"?>
<svg width="25px" height="25px" viewBox="0 0 25 25" version="1.1" xmlns="http://www.w3.org/2000/svg" xmlns:xlink="http://www.w3.org/1999/xlink">
    <!-- Generator: Sketch 48.2 (47327) - http://www.bohemiancoding.com/sketch -->
    <title>001-instagram-logo</title>
    <desc>Created with Sketch.</desc>
    <defs></defs>
    <g id="001-instagram-logo" stroke="none" stroke-width="1" fill="none" fill-rule="evenodd" transform="translate(0.000000, -1.000000)">
        <path d="M24.789,3.781 C24.637,2.305 23.414,1.199 21.926,1.199 C15.578,1.199 9.23,1.199 2.883,1.199 C2.707,1.199 2.531,1.215 2.363,1.246 C0.957,1.516 0,2.68 0,4.109 L0,13.605 C0,16.762 0,19.922 0.004,23.078 C0.004,23.238 0.016,23.402 0.035,23.562 C0.219,24.937 1.438,26 2.828,26 C9.211,26 15.594,26 21.977,26 C22.086,26 22.195,25.996 22.305,25.98 C23.707,25.816 24.797,24.594 24.797,23.18 C24.801,16.797 24.801,10.41 24.797,4.027 C24.801,3.945 24.801,3.863 24.789,3.781 Z M12.402,8.832 C15.035,8.832 17.168,10.961 17.172,13.598 C17.176,16.234 15.047,18.367 12.41,18.371 C9.766,18.371 7.633,16.234 7.633,13.598 C7.637,10.969 9.773,8.832 12.402,8.832 Z M21.945,11.824 L21.945,22.102 C21.945,22.746 21.555,23.141 20.906,23.141 L5.012,23.141 C4.629,23.141 4.25,23.145 3.867,23.141 C3.27,23.141 2.867,22.734 2.867,22.137 C2.863,18.695 2.867,15.254 2.867,11.812 L2.867,11.703 L5.02,11.703 C4.535,13.645 4.758,15.504 5.707,17.262 C6.402,18.547 7.398,19.543 8.672,20.262 C11.18,21.68 14.305,21.543 16.695,19.91 C18.023,19.004 18.977,17.797 19.543,16.293 C20.109,14.793 20.184,13.262 19.789,11.699 L21.945,11.699 C21.945,11.742 21.945,11.781 21.945,11.824 Z M21.945,7.855 C21.945,8.422 21.527,8.832 20.961,8.832 L19.559,8.832 C19.09,8.832 18.617,8.832 18.145,8.832 C17.602,8.832 17.18,8.426 17.176,7.883 C17.168,6.926 17.168,5.969 17.176,5.016 C17.18,4.465 17.602,4.062 18.152,4.062 C19.094,4.062 20.031,4.062 20.973,4.062 C21.527,4.062 21.945,4.477 21.945,5.039 C21.945,5.977 21.945,6.918 21.945,7.855 Z" fill="#607D8B"></path>
    </g>
</svg>