<?xml version="1.0" encoding="UTF-8"?>
<svg width="31px" height="25px" viewBox="0 0 31 25" version="1.1" xmlns="http://www.w3.org/2000/svg" xmlns:xlink="http://www.w3.org/1999/xlink">
    <!-- Generator: Sketch 48.2 (47327) - http://www.bohemiancoding.com/sketch -->
    <title>002-twitter-logo-silhouette</title>
    <desc>Created with Sketch.</desc>
    <defs>
        <polygon id="path-1" points="0 3.57330485e-15 1.31820586e-18 25 31 25 31 0"></polygon>
    </defs>
    <g id="002-twitter-logo-silhouette" stroke="none" stroke-width="1" fill="none" fill-rule="evenodd">
        <g>
            <mask id="mask-2" fill="white">
                <use xlink:href="#path-1"></use>
            </mask>
            <g id="Clip-2"></g>
            <path d="M31,2.95798288 C29.8587792,3.45987503 28.6347401,3.80021122 27.3483973,3.95221212 C28.661713,3.17133733 29.6671194,1.93276254 30.1437045,0.461660318 C28.9117508,1.18457612 27.5517073,1.70979017 26.1028305,1.99443041 C24.9423613,0.765410679 23.291884,0 21.4613972,0 C17.9492813,0 15.1018011,2.82710368 15.1018011,6.31199789 C15.1018011,6.80634657 15.1578997,7.28906574 15.2664879,7.75047461 C9.98200988,7.48701895 5.29612828,4.97347213 2.15992377,1.15389934 C1.61160085,2.08476345 1.29970262,3.1693886 1.29970262,4.32718541 C1.29970262,6.51780887 2.42332139,8.45057142 4.12793453,9.58133746 C3.08593102,9.54695181 2.10578797,9.26212298 1.24752963,8.78921032 L1.24752963,8.86797672 C1.24752963,11.9259106 3.4403781,14.4779919 6.3480092,15.0587133 C5.81526219,15.2011592 5.25357944,15.2799256 4.67233181,15.2799256 C4.2617861,15.2799256 3.86453691,15.2396937 3.47526562,15.1625618 C4.28502335,17.6723997 6.63268124,19.4976049 9.41443867,19.5477062 C7.23912893,21.2400835 4.49599471,22.2458794 1.51687902,22.2458794 C1.00344361,22.2458794 0.497859486,22.2152026 0,22.1594438 C2.81461881,23.9537208 6.15628613,25 9.74780128,25 C21.4460746,25 27.8405582,15.3798765 27.8405582,7.03711387 L27.8190306,6.21971611 C29.0685863,5.33493003 30.149403,4.22333698 31,2.95798288 Z" id="Fill-1" fill="#607D8B" mask="url(#mask-2)"></path>
        </g>
    </g>
</svg>